<svg id="Icons_1_copy" data-name="Icons 1 copy" xmlns="http://www.w3.org/2000/svg" viewBox="0 0 128 128"><defs><style>.cls-1{fill:#fff;}</style></defs><title>04 Implant</title><path class="cls-1" d="M103.64,23.12C94.56,4.29,75.59,7.71,67.49,9.17A28,28,0,0,1,64,9.68a28,28,0,0,1-3.49-.51c-8.1-1.46-27.07-4.88-36.15,14-7.43,15.41-2.68,30.86.81,38.69A2,2,0,0,0,27,63h3v6a2,2,0,0,0,2,2H42v3.89l-2.46.44a2,2,0,0,0,.34,4,2.07,2.07,0,0,0,.35,0L42,79v5.94l-2.46.44a2,2,0,0,0,.34,4,2.07,2.07,0,0,0,.35,0L42,89v5.94l-2.46.44a2,2,0,0,0,.34,4,2.07,2.07,0,0,0,.35,0L42,99v5.94l-2.46.44a2,2,0,0,0,.35,4l.35,0,3.16-.56L48.26,116a2,2,0,0,0,.69,1l1.36,2A2,2,0,0,0,52,120H76a2,2,0,0,0,1.67-.89l5.23-7.87a2.7,2.7,0,0,0,.22-.33l2.53-3.8A2.09,2.09,0,0,0,86,106v-4.8l2.35-.42a2,2,0,0,0-.7-3.94L86,97.13V91.2l2.35-.42a2,2,0,1,0-.7-3.94L86,87.13V81.2l2.35-.42a2,2,0,1,0-.7-3.94L86,77.13V71H96a2,2,0,0,0,2-2V63h3a2,2,0,0,0,1.83-1.19C106.32,54,111.07,38.53,103.64,23.12ZM46,71H64.08L46,74.19Zm29,45H58.76l18.34-3.23Zm7-10.6-1.84,2.76-28.93,5.1L47.7,108l34.3-6Zm0-7.56-36,6.35V98.25L82,91.9Zm0-10L46,94.19V88.25L82,81.9ZM46,84.19V78.25L82,71.9v5.94ZM94,67H34V63H94Zm5.68-8H28.32c-3.13-7.5-6.73-20.91-.36-34.14C35.72,8.76,51.38,11.59,59.8,13.1a27.61,27.61,0,0,0,4.2.58,27.61,27.61,0,0,0,4.2-.58C76.62,11.58,92.28,8.76,100,24.86,106.41,38.09,102.81,51.5,99.68,59Z"/><path class="cls-1" d="M49,17.94c-7.63,0-12.45,2.94-15.62,9.52a30,30,0,0,0-2.93,12.68,2,2,0,0,0,2,2h0a2,2,0,0,0,2-2A26,26,0,0,1,37,29.2c2.48-5.15,6-7.26,12-7.26a2,2,0,0,0,0-4Z"/></svg>