<svg id="Icons_1_copy" data-name="Icons 1 copy" xmlns="http://www.w3.org/2000/svg" viewBox="0 0 128 128"><defs><style>.cls-1{fill:#fff;}</style></defs><title>08 Diagnostics</title><path class="cls-1" d="M72,29A18,18,0,0,0,54,47a2,2,0,0,0,4,0A14,14,0,0,1,72,33a2,2,0,0,0,0-4Z"/><path class="cls-1" d="M119,85.58,98.87,65.46a3.44,3.44,0,0,0-4.86,0l-.17.16L91.92,63.7a26,26,0,0,0-1.54-35.08h0a26,26,0,1,0-1.26,37.94L91,68.45l-.16.17a3.43,3.43,0,0,0,0,4.86L111,93.6a3.43,3.43,0,0,0,4.86,0L119,90.44A3.44,3.44,0,0,0,119,85.58Zm-62.55-23a22,22,0,1,1,31.12,0A22,22,0,0,1,56.44,62.56Zm57,27.81L94.07,71.05l2.37-2.37L115.76,88Z"/><path class="cls-1" d="M81.31,75.67a2,2,0,0,0-2.12,1.87C77.69,101.1,72.89,116.18,67,116c-4.17-.14-5.32-9.23-6.34-17.25C59.43,89.06,58.16,79,51,79s-8.43,10-9.66,19.71c-1,8-2.17,17.11-6.34,17.25a4.29,4.29,0,0,1-3.11-1.36c-7.06-6.68-9.15-33.39-9.36-43.12a2,2,0,0,0-.4-1.16C22,70.13,4.57,46.62,15,24.92,22.77,8.84,38.43,11.67,46.85,13.19a26.72,26.72,0,0,0,4.15.57,26.72,26.72,0,0,0,4.15-.57C62,12,74.66,9.67,83,18.85a2,2,0,1,0,3-2.69C76.13,5.34,61.48,8,54.44,9.26a27.06,27.06,0,0,1-3.44.5,27.06,27.06,0,0,1-3.44-.5c-8.1-1.47-27.07-4.9-36.14,13.93-4.79,9.93-5,21.67-.6,34a65.72,65.72,0,0,0,7.73,15.1c.15,5,1.46,36.67,10.59,45.31a8.14,8.14,0,0,0,6,2.45c7.58-.26,8.9-10.67,10.18-20.75C46.27,91.65,47.37,83,51,83s4.73,8.61,5.69,16.21C58,109.33,59.29,119.74,66.87,120h.27c11,0,14.81-22.9,16-42.21A2,2,0,0,0,81.31,75.67Z"/><path class="cls-1" d="M36.19,22a2,2,0,0,0,0-4c-7.73,0-12.59,2.94-15.76,9.53a28.79,28.79,0,0,0-2.73,14,2,2,0,0,0,2,1.91h.09a2,2,0,0,0,1.91-2.09A24.93,24.93,0,0,1,24,29.27C26.52,24.11,30,22,36.19,22Z"/></svg>