<svg id="Icons_1_copy" data-name="Icons 1 copy" xmlns="http://www.w3.org/2000/svg" viewBox="0 0 128 128"><defs><style>.cls-1{fill:#fff;}</style></defs><title>21 Wisdom-Tooth</title><path class="cls-1" d="M86.51,49.39c12.08,3,30.65,3.58,31.43,3.6a2,2,0,0,0,.12-4c-.19,0-18.93-.56-30.58-3.48-9.39-2.35-16.52,0-21.08,3.3a24.1,24.1,0,0,0-2.21-12.89c-5.65-11.72-17.31-9.61-22.3-8.71A17.52,17.52,0,0,1,40,27.5a17.61,17.61,0,0,1-1.9-.29c-5-.9-16.64-3-22.29,8.71-3.21,6.65-2.65,13.39-1.05,18.81a16.85,16.85,0,0,0-5-.31,2,2,0,1,0,.41,4,16.37,16.37,0,0,1,6.25.9A39.6,39.6,0,0,0,20,65.61c.13,4.07,1,21.93,6.53,27.17a5.64,5.64,0,0,0,4.13,1.67c5.19-.17,6.05-7,6.81-13,.4-3.11,1.13-8.9,2.57-8.9s2.17,5.79,2.56,8.9c.77,6,1.63,12.83,6.82,13h.18a5.69,5.69,0,0,0,3.95-1.67c5.54-5.24,6.4-23.1,6.53-27.17a39.77,39.77,0,0,0,4.6-9.07C65.36,55.29,71.5,45.64,86.51,49.39ZM56.46,63.73a2,2,0,0,0-.4,1.17c-.17,7.88-1.76,21.62-5.3,25a1.64,1.64,0,0,1-1.25.58c-1.78-.06-2.5-5.74-3-9.51C45.76,74.85,45,68.55,40,68.55s-5.76,6.3-6.53,12.39c-.48,3.77-1.2,9.45-3,9.51a1.65,1.65,0,0,1-1.25-.58c-3.54-3.34-5.13-17.09-5.3-25a2,2,0,0,0-.4-1.16c-.1-.14-10.1-13.69-4.13-26.09,2.82-5.84,7.56-7.2,11.85-7.2a34.12,34.12,0,0,1,6.13.7A16.57,16.57,0,0,0,40,31.5a16.57,16.57,0,0,0,2.61-.35c4.77-.86,13.65-2.47,18,6.5C66.56,50.05,56.56,63.6,56.46,63.73Z"/><path class="cls-1" d="M102.72,66.91c-1.49-2.69-8.14-13.43-19.87-13.62-10.63-.14-13.34,9.06-14.51,13-.15.53-.35,1.19-.44,1.38s-.51.74-.84,1.18c-2.47,3.28-8.25,11-1.76,19.4,7.15,9.29,19.73,8.22,22.78,7.8,2.68,1.24,12.32,5.47,18.71,5.47a9.22,9.22,0,0,0,3.09-.45,5,5,0,0,0,2.89-2.56c1.87-4.05-2.81-7.2-6.94-10-1.82-1.22-5.21-3.5-5.26-4.44v0l-1.78-.9,1.78.9c.81-.53,4.65.82,6.72,1.55,4.69,1.66,10,3.53,12.14-.39a4.84,4.84,0,0,0,.32-3.84C118,75.53,105.78,68.58,102.72,66.91Zm13.2,16.42c-.51.93-5.27-.75-7.3-1.47-4.54-1.6-9.69-3.42-11.62.42h0c-1.93,3.85,2.6,6.89,6.6,9.58,1.79,1.2,6,4,5.54,5,0,.08-.14.29-.63.46-3.51,1.28-13.68-2.46-19.27-5.12a2,2,0,0,0-.86-.19A2.19,2.19,0,0,0,88,92c-.13,0-13,2.23-19.56-6.21-4.27-5.55-1.31-10.42,1.8-14.56a12,12,0,0,0,1.21-1.79,12,12,0,0,0,.71-2c1.46-5,3.61-10.25,10.61-10.13,10.65.17,16.6,11.86,16.65,12a2,2,0,0,0,.86.88c5.47,2.9,14.55,8.82,15.62,12.4C116.07,83.05,116,83.25,115.92,83.33Z"/></svg>