<svg id="Icons_1_copy" data-name="Icons 1 copy" xmlns="http://www.w3.org/2000/svg" viewBox="0 0 128 128"><defs><style>.cls-1{fill:#fff;}</style></defs><title>03 Cleaning</title><path class="cls-1" d="M112,27.67l-11.78-4.55L95.7,11.35a2,2,0,0,0-3.74,0l-1.07,2.78C81.2,5.71,68.06,8.07,61.49,9.26a26.82,26.82,0,0,1-3.44.5,27.06,27.06,0,0,1-3.44-.5c-8.1-1.47-27.06-4.9-36.14,13.93-4.79,9.93-5,21.67-.6,34a65.72,65.72,0,0,0,7.73,15.1c.15,5,1.46,36.67,10.59,45.31A8.19,8.19,0,0,0,41.92,120h.27c7.57-.26,8.89-10.67,10.17-20.75,1-7.6,2.06-16.21,5.69-16.21s4.73,8.61,5.7,16.21C65,109.33,66.35,119.74,73.92,120a8.07,8.07,0,0,0,6-2.45c9.13-8.64,10.44-40.27,10.6-45.31,2.2-3.11,12.58-18.83,10.64-36.65L112,31.4a2,2,0,0,0,0-3.73ZM86.93,70.36a2,2,0,0,0-.41,1.16c-.2,9.73-2.29,36.44-9.36,43.13a4.29,4.29,0,0,1-3.1,1.35c-4.17-.14-5.33-9.23-6.34-17.25C66.49,89.06,65.21,79,58.05,79s-8.43,10-9.66,19.71c-1,8-2.17,17.11-6.34,17.25a4.33,4.33,0,0,1-3.11-1.35c-7.06-6.69-9.15-33.4-9.36-43.13a2,2,0,0,0-.4-1.16c-.18-.23-17.58-23.7-7.1-45.44C27.14,14.41,35.58,12,43.17,12A60.31,60.31,0,0,1,53.9,13.19a26.72,26.72,0,0,0,4.15.57,26.41,26.41,0,0,0,4.15-.57C68.85,12,81,9.8,89.34,18.14l-1.92,5L75.65,27.67a2,2,0,0,0-1.28,1.86h0a2,2,0,0,0,1.28,1.87l11.77,4.54L92,47.72a2,2,0,0,0,3.74,0l1.5-3.9C95.8,58.39,87,70.22,86.93,70.36ZM98.25,32.42h0l-.28.11a2,2,0,0,0-1.14,1.15l-3,7.76-3-7.76a2,2,0,0,0-1.14-1.15l-7.77-3,7.77-3a2,2,0,0,0,1.14-1.15l2.7-7h0l.3-.79,3,7.77A2,2,0,0,0,98,26.54l7.77,3Z"/><path class="cls-1" d="M73.79,34.35,67,31.73l-2.63-6.81a2,2,0,0,0-3.73,0L58,31.73l-6.81,2.62a2,2,0,0,0,0,3.73L58,40.71l2.63,6.81a2,2,0,0,0,3.73,0L67,40.71l6.8-2.63a2,2,0,0,0,0-3.73ZM64.72,37.3a2,2,0,0,0-1.15,1.14l-1.08,2.8-1.08-2.8a2,2,0,0,0-1.14-1.14l-2.8-1.08,2.8-1.08A2,2,0,0,0,61.41,34l1.08-2.8L63.57,34a2,2,0,0,0,1.15,1.15l2.8,1.08Z"/></svg>