<svg id="Icons_1_copy" data-name="Icons 1 copy" xmlns="http://www.w3.org/2000/svg" viewBox="0 0 128 128"><defs><style>.cls-1{fill:#fff;}</style></defs><title>11 Root-Canal</title><path class="cls-1" d="M46.72,76c-2.32-7.39-5.21-16.6-5.67-20.43a5.67,5.67,0,0,1,6.14-6.33c.79.07,2.68.34,4.68.63a2,2,0,0,0,.57-4c-2.14-.31-4-.57-4.89-.65A9.66,9.66,0,0,0,37.08,56c.51,4.2,3.33,13.2,5.82,21.15,1.38,4.39,2.67,8.53,3.05,10.27,0,2.85.11,20.21,1.9,25.19a2,2,0,0,0,1.88,1.32,2,2,0,0,0,.67-.12,2,2,0,0,0,1.21-2.56C50.28,107.56,50,93.31,50,87.61c3.52-8.92,10.29-10.28,14-10.28s10.53,1.36,14,10.28c0,5.7-.33,20-1.66,23.64a2,2,0,0,0,1.21,2.56,2,2,0,0,0,.67.12,2,2,0,0,0,1.88-1.32c1.79-5,1.89-22.34,1.9-25.19.38-1.74,1.67-5.88,3-10.27,2.49-8,5.31-17,5.82-21.15A9.66,9.66,0,0,0,80.45,45.21c-.9.08-2.72.34-5,.67-2.89.41-6.48.92-9,1.18a2,2,0,0,0,.41,4c2.62-.27,6.25-.79,9.17-1.2,2.16-.31,4-.58,4.82-.65A5.67,5.67,0,0,1,87,55.52c-.46,3.83-3.35,13-5.67,20.43C80.62,78.08,80,80,79.5,81.69a18.57,18.57,0,0,0-28.73-2.83c2.1-12.51,8.31-26,13.69-35.89C72,29.12,81,16.6,86,11.38a2,2,0,0,0-2.89-2.76c-9,9.41-31,42-36,68.42C47,76.68,46.83,76.32,46.72,76Z"/><path class="cls-1" d="M99.63,33c-3.39-7-8.69-11.42-15.74-13a2,2,0,1,0-.89,3.9c5.89,1.33,10.15,4.89,13,10.86,9.31,19.31-6.18,40.26-6.34,40.47a2,2,0,0,0-.4,1.16c-.19,8.69-2,32.53-8.32,38.47A3.59,3.59,0,0,1,78.34,116c-3.56-.12-4.58-8.17-5.48-15.27C71.75,92,70.6,82.9,64,82.9S56.25,92,55.14,100.73c-.9,7.1-1.92,15.15-5.48,15.27A3.61,3.61,0,0,1,47,114.84c-6.27-5.93-8.13-29.78-8.32-38.47a2,2,0,0,0-.4-1.16C38.15,75,22.64,54.09,32,34.74,38.84,20.49,52.74,23,60.21,24.34a24.12,24.12,0,0,0,3.79.52,17.16,17.16,0,0,0,2.85-.35,2,2,0,0,0-.69-3.94,16.92,16.92,0,0,1-2.16.29,25.33,25.33,0,0,1-3.08-.45C53.62,19.09,36.55,16,28.37,33c-4.32,9-4.51,19.52-.55,30.57a59.6,59.6,0,0,0,6.91,13.52c.07,2.07.35,8.94,1.37,16.6,1.66,12.4,4.41,20.49,8.18,24.06A7.5,7.5,0,0,0,49.8,120c7-.24,8.15-9.66,9.31-18.76C59.92,94.85,60.93,86.9,64,86.9s4.08,7.95,4.89,14.34c1.16,9.1,2.35,18.52,9.31,18.76h.25a7.55,7.55,0,0,0,5.27-2.25c3.77-3.57,6.52-11.66,8.18-24.06,1-7.66,1.3-14.53,1.37-16.6a59.6,59.6,0,0,0,6.91-13.52C104.14,52.52,104,42,99.63,33Z"/></svg>