<svg id="Icons_1_copy" data-name="Icons 1 copy" xmlns="http://www.w3.org/2000/svg" viewBox="0 0 128 128"><defs><style>.cls-1{fill:#fff;}</style></defs><title>19 Gum-Pain</title><path class="cls-1" d="M41.21,35.16A18.8,18.8,0,0,1,43,27.09c1.8-3.72,4-5,8.52-5a2,2,0,0,0,0-4c-6,0-9.65,2.18-12.12,7.3a22.84,22.84,0,0,0-2.2,9.78,2,2,0,0,0,2,2h0A2,2,0,0,0,41.21,35.16Z"/><path class="cls-1" d="M100.89,57.61a2,2,0,0,0,2.77-.55l4-6a2,2,0,1,0-3.32-2.22l-4,6A2,2,0,0,0,100.89,57.61Z"/><path class="cls-1" d="M105.26,62.94A2,2,0,0,0,107,64a2,2,0,0,0,1-.26l7-4a2,2,0,1,0-2-3.48l-7,4A2,2,0,0,0,105.26,62.94Z"/><path class="cls-1" d="M108.72,67a2,2,0,0,0,.28,4l.28,0,7-1a2,2,0,0,0-.56-4Z"/><path class="cls-1" d="M24.34,57.06a2,2,0,1,0,3.32-2.22l-4-6a2,2,0,0,0-3.32,2.22Z"/><path class="cls-1" d="M13,59.69l7,4A2,2,0,0,0,21,64a2,2,0,0,0,1-3.74l-7-4a2,2,0,1,0-2,3.48Z"/><path class="cls-1" d="M11.72,69.93l7,1L19,71a2,2,0,0,0,.28-4l-7-1a2,2,0,1,0-.56,4Z"/><path class="cls-1" d="M114,87h-3a6,6,0,0,1-6-6V70A10,10,0,0,0,95,60H93.27a57,57,0,0,0,4.85-10.16c3.73-10.42,3.55-20.39-.52-28.83C89.86,5,73.73,7.87,66.84,9.11A22.75,22.75,0,0,1,64,9.53a22.75,22.75,0,0,1-2.84-.42C54.27,7.87,38.14,5,30.4,21c-4.07,8.44-4.25,18.41-.52,28.83A57,57,0,0,0,34.73,60H33A10,10,0,0,0,23,70V81a6,6,0,0,1-6,6H14a6,6,0,0,0-6,6v21a6,6,0,0,0,6,6H114a6,6,0,0,0,6-6V93A6,6,0,0,0,114,87ZM34,22.75c6.42-13.32,19.45-11,26.45-9.7a22.48,22.48,0,0,0,3.55.48,22.48,22.48,0,0,0,3.55-.48c7-1.27,20-3.62,26.45,9.7,8.71,18.08-5.8,37.72-6,37.91a2.06,2.06,0,0,0-.4,1.17C87.47,70,85.74,92.34,79.87,97.9a3.31,3.31,0,0,1-2.39,1c-3.24-.11-4.23-8-5-14.24C71.39,76.41,70.3,67.84,64,67.84s-7.39,8.57-8.45,16.87c-.8,6.29-1.79,14.13-5,14.24a3.29,3.29,0,0,1-2.39-1c-5.86-5.56-7.6-27.92-7.77-36.07A2,2,0,0,0,40,60.66C39.8,60.47,25.27,40.87,34,22.75ZM116,114a2,2,0,0,1-2,2H14a2,2,0,0,1-2-2V93a2,2,0,0,1,2-2h3A10,10,0,0,0,27,81V70a6,6,0,0,1,6-6h3.43c.12,2.84.45,8.22,1.23,14.12,1.57,11.68,4.16,19.31,7.72,22.68A7.21,7.21,0,0,0,50.66,103c6.64-.23,7.77-9.13,8.86-17.74.76-6,1.7-13.37,4.48-13.37s3.72,7.41,4.48,13.37c1.09,8.61,2.22,17.51,8.87,17.74h.23a7.19,7.19,0,0,0,5-2.15c3.56-3.37,6.15-11,7.72-22.68.79-5.9,1.11-11.28,1.23-14.12H95a6,6,0,0,1,6,6V81a10,10,0,0,0,10,10h3a2,2,0,0,1,2,2Z"/></svg>