<svg id="Icons_1_copy" data-name="Icons 1 copy" xmlns="http://www.w3.org/2000/svg" viewBox="0 0 128 128"><defs><style>.cls-1{fill:#fff;}</style></defs><title>13 Caries</title><path class="cls-1" d="M80.14,120h-.27c-7.58-.26-8.9-10.67-10.18-20.75C68.73,91.65,67.63,83,64,83s-4.73,8.61-5.69,16.21C57,109.33,55.71,119.74,48.13,120a8.14,8.14,0,0,1-6-2.45C33,108.91,31.7,77.27,31.55,72.24a65.72,65.72,0,0,1-7.73-15.1c-4.4-12.28-4.19-24,.6-33.95,9.07-18.83,28-15.4,36.14-13.93a27.06,27.06,0,0,0,3.44.5,27.06,27.06,0,0,0,3.44-.5c8.1-1.47,27.07-4.9,36.14,13.93,4.79,9.93,5,21.67.6,34a65.72,65.72,0,0,1-7.73,15.1c-.15,5-1.46,36.67-10.59,45.31A8.17,8.17,0,0,1,80.14,120Zm-31-108c-7.59,0-16,2.43-21.1,12.94C17.57,46.62,35,70.13,35.13,70.36a2,2,0,0,1,.4,1.16c.21,9.73,2.3,36.44,9.36,43.12A4.29,4.29,0,0,0,48,116c4.17-.14,5.32-9.23,6.34-17.25C55.57,89.06,56.84,79,64,79s8.43,10,9.66,19.71c1,8,2.17,17.11,6.34,17.25a4.27,4.27,0,0,0,3.11-1.36c7.07-6.69,9.15-33.39,9.36-43.12a2,2,0,0,1,.4-1.16c.18-.23,17.56-23.74,7.11-45.44C92.23,8.84,76.57,11.67,68.15,13.19a26.72,26.72,0,0,1-4.15.57,26.72,26.72,0,0,1-4.15-.57A60.54,60.54,0,0,0,49.12,12Z"/><path class="cls-1" d="M32.76,39.64H32.6a2,2,0,0,1-1.83-2.16,27.9,27.9,0,0,1,2.66-9.95c3.17-6.59,8-9.53,15.76-9.53a2,2,0,0,1,0,4C43,22,39.52,24.11,37,29.27a24,24,0,0,0-2.28,8.53A2,2,0,0,1,32.76,39.64Z"/><path class="cls-1" d="M74,32a8,8,0,1,1,8-8A8,8,0,0,1,74,32Zm0-12a4,4,0,1,0,4,4A4,4,0,0,0,74,20Z"/><path class="cls-1" d="M90,41a5.92,5.92,0,0,1-3.86-1.42A6,6,0,1,1,90.5,41Zm0-8h-.17a2,2,0,1,0,.34,4h0A2,2,0,0,0,90,33Z"/><path class="cls-1" d="M75,47a5,5,0,0,1-3.82-8.23A5,5,0,0,1,74.58,37a5,5,0,0,1,4.24,8.21A5,5,0,0,1,75.42,47h0Zm.25-2h0ZM75,41h-.08a1,1,0,0,0-.68.36,1,1,0,0,0-.24.72,1,1,0,0,0,1.08.92,1,1,0,0,0,.68-.36,1,1,0,0,0,.24-.72A1,1,0,0,0,75,41Z"/></svg>